<?xml version="1.0" encoding="UTF-8"?>
<svg id="svg2" xmlns="http://www.w3.org/2000/svg" viewBox="0 0 804.49 846.6">
  <defs>
    <style>
      .cls-1, .cls-2, .cls-3 {
        fill-rule: evenodd;
      }

      .cls-1, .cls-4 {
        fill: #ffbb1c;
      }

      .cls-2 {
        fill: #133575;
      }

      .cls-3 {
        fill: #f2b12e;
      }
    </style>
  </defs>
  <path class="cls-2" d="M620.24,490.5l-217.52,217.52-215.61-215.62,70.26-143.93.06-.12c.3-.69,31.1-69.2,66.84-65.95l2.23.21,77.64-134.48,77.64,134.48,2.23-.21c35.78-3.24,66.54,65.26,66.84,65.95l69.39,142.15Z"/>
  <path d="M406.57,472.08v16.81l3.37.06c13.9.25,23.09,1.41,27.3,3.46,6.09,3.12,9.06,9.77,9.06,20.35v41.46c0,7.18-1.42,12.52-4.22,15.87-5.04,6.16-15.52,9.29-31.12,9.29-29.72,0-49.18-11.9-59.5-36.38-10.58-25.11-15.95-54.14-15.95-86.29,0-39.17,5.74-69.88,17.06-91.29,11.11-20.98,28.26-31.18,52.44-31.18,22.13,0,42.31,10.32,59.96,30.65,9.6,11.23,19.19,26.87,28.49,46.46l.93,1.97h15.6v-98.83h-17l-.69,2.53c-1.53,5.5-3.42,9.57-5.63,12.1-1.88,2.17-4.35,3.23-7.57,3.23-1.99,0-8.37-1.16-28.92-8.9-16.45-6.19-33.2-9.34-49.78-9.34-41.35,0-75.84,14.24-102.51,42.35-25.71,27.27-38.74,61.32-38.74,101.21s12.59,72.85,37.4,99.11c26.66,28.1,62.7,42.34,107.11,42.34,24.24,0,46.51-2.75,66.18-8.19,19.67-5.43,34.18-11,43.12-16.51l1.63-1.01v-52.02c0-12.63,1.94-21.18,5.75-25.43,3.73-4.19,11.99-6.55,24.53-7.02l3.31-.13v-16.74h-141.63ZM403.67,594.2c-43.02,0-77.84-13.73-103.54-40.8-23.92-25.32-36.06-57.52-36.06-95.73s12.59-71.51,37.4-97.84c25.7-27.08,58.99-40.8,98.93-40.8,15.99,0,32.16,3.04,48.04,9.02,21.91,8.27,27.99,9.22,30.66,9.22,4.64,0,8.44-1.66,11.29-4.93,2.47-2.83,4.46-6.84,6.11-12.23l.22-.7h8.35v89h-7.58l-.27-.56c-9.29-19.34-18.89-34.88-28.54-46.16-18.63-21.47-40.06-32.36-63.68-32.36-25.81,0-44.91,11.37-56.78,33.8-11.69,22.13-17.63,53.62-17.63,93.59,0,32.81,5.49,62.48,16.33,88.19,11.02,26.14,32.56,39.39,64.03,39.39,17.39,0,28.8-3.62,34.91-11.07,3.55-4.24,5.35-10.62,5.35-19.01v-41.46c0-12.44-3.97-20.77-11.78-24.75-4.7-2.28-13.53-3.57-27-3.93l-.95-.03v-7.06h131.8v7.1l-.92.06c-12.81.75-21.21,3.54-25.68,8.53-4.7,5.25-6.99,14.64-6.99,28.72v49.27l-.49.29c-8.62,5.05-22.3,10.18-40.66,15.25-19.24,5.32-41.06,8.01-64.87,8.01Z"/>
  <path class="cls-4" d="M543.28,476.99v7.1l-.92.06c-12.81.75-21.21,3.54-25.68,8.53-4.7,5.25-6.99,14.64-6.99,28.72v49.27l-.49.29c-8.62,5.05-22.3,10.18-40.66,15.25-19.24,5.32-41.06,8.01-64.87,8.01-43.02,0-77.84-13.73-103.54-40.8-23.92-25.32-36.06-57.52-36.06-95.73s12.59-71.51,37.4-97.84c25.7-27.08,58.99-40.8,98.93-40.8,15.99,0,32.16,3.04,48.04,9.02,21.91,8.27,27.99,9.22,30.66,9.22,4.64,0,8.44-1.66,11.29-4.93,2.47-2.83,4.46-6.84,6.11-12.23l.22-.7h8.35v89h-7.58l-.27-.56c-9.29-19.34-18.89-34.88-28.54-46.16-18.63-21.47-40.06-32.36-63.68-32.36-25.81,0-44.91,11.37-56.78,33.8-11.69,22.13-17.63,53.62-17.63,93.59,0,32.81,5.49,62.48,16.33,88.19,11.02,26.14,32.56,39.39,64.03,39.39,17.39,0,28.8-3.62,34.91-11.07,3.55-4.24,5.35-10.62,5.35-19.01v-41.46c0-12.44-3.97-20.77-11.78-24.75-4.7-2.28-13.53-3.57-27-3.93l-.95-.03v-7.06h131.8Z"/>
  <g>
    <path class="cls-1" d="M160.53,475.73l-38.72,80.55-13.58-13.58,17.09-17.1c1.37-1.37,1.37-3.59,0-4.95-1.36-1.37-3.58-1.37-4.95,0l-17.09,17.1-27.84-27.84,28.84-28.84c1.37-1.37,1.37-3.58,0-4.95-1.36-1.37-3.58-1.37-4.95,0l-28.84,28.84-28.17-28.17,17.35-17.35c1.36-1.37,1.36-3.58,0-4.95-1.37-1.37-3.59-1.37-4.95,0l-17.35,17.35-27.51-27.51,59.18-60.09,91.49,91.49Z"/>
    <path class="cls-1" d="M611.62,587.19c-1.36,1.37-1.36,3.58,0,4.95l17.59,17.58-28.57,28.57-30.06-30.06c-1.37-1.37-3.58-1.37-4.95,0-1.37,1.37-1.37,3.58,0,4.95l30.06,30.06-27.59,27.59-17.09-17.1c-1.37-1.36-3.59-1.36-4.95,0s-1.37,3.59,0,4.95l17.1,17.1-28.08,28.08-29.09-29.09c-1.36-1.36-3.58-1.36-4.95,0-1.36,1.37-1.36,3.59,0,4.95l29.09,29.09-29.06,29.06-17.2-17.2c-1.36-1.37-3.58-1.37-4.95,0-1.36,1.36-1.36,3.58,0,4.95l17.2,17.19-28.57,28.57-29.08-29.08c-1.37-1.37-3.58-1.37-4.95,0-1.37,1.36-1.37,3.58,0,4.95l29.08,29.08-28.42,28.42-17.15-17.15c-1.36-1.37-3.58-1.37-4.95,0-1.36,1.36-1.36,3.58,0,4.95l17.15,17.15-27,27-27.53-27.53,17.3-17.31c1.37-1.36,1.37-3.58,0-4.95-1.37-1.36-3.58-1.36-4.95,0l-17.3,17.31-28.62-28.62,28.35-28.35c1.37-1.37,1.37-3.59,0-4.95-1.37-1.37-3.58-1.37-4.95,0l-28.35,28.35-28.32-28.32,17.09-17.1c1.37-1.37,1.37-3.59,0-4.95-1.36-1.37-3.58-1.37-4.94,0l-17.1,17.1-28.32-28.32,28.35-28.36c1.36-1.36,1.36-3.58,0-4.95-1.37-1.36-3.59-1.36-4.95,0l-28.35,28.36-28.82-28.82,17.2-17.2c1.37-1.36,1.37-3.58,0-4.95-1.36-1.36-3.58-1.36-4.95,0l-17.2,17.2-27.83-27.83,28.35-28.35c1.37-1.37,1.37-3.58,0-4.95-1.36-1.37-3.58-1.37-4.95,0l-28.35,28.35-27.34-27.34,17.1-17.1c1.36-1.37,1.36-3.58,0-4.95-1.37-1.37-3.59-1.37-4.95,0l-17.1,17.1-26.07-26.07,33.84-69.31,5.29-10.84,216.39,216.39,2.47,2.48,220.77-220.77,10.04,20.56,28.77,58.92-28.14,28.14-17.59-17.58c-1.36-1.37-3.58-1.37-4.95,0Z"/>
    <path class="cls-1" d="M745.4,454.49c-1.37,1.37-1.37,3.58,0,4.95l17.05,17.05-28.23,28.22-28.59-28.59c-1.37-1.37-3.59-1.37-4.95,0-1.37,1.37-1.37,3.58,0,4.95l28.59,28.59-28.08,28.08-17.09-17.09c-1.37-1.37-3.59-1.37-4.95,0-1.37,1.36-1.37,3.58,0,4.95l17.09,17.09-11.02,11.02-38.4-79.89,88.62-88.62,59.15,59.14-27.19,27.2-17.05-17.05c-1.37-1.37-3.59-1.37-4.95,0Z"/>
  </g>
  <path d="M770.34,478.5c-.12.18-.26.35-.42.51-.16.16-.33.3-.51.42l.93-.93Z"/>
  <path class="cls-1" d="M714.22,630.19c-7.22-6.65-16.11-12.98-25.42-15.22l-18.02-36.91-1.62-3.33-1.63-3.33-28.68-58.75-10.12-20.74-3.25-6.65-68.25-139.8c-1.65-3.7-31.76-70.17-70.76-70.17-.28,0-.55.01-.83.01l-77.46-134.17,5.78-10.02c8.03-1.5,15.56-4.46,22.29-8.59,9.39-5.76,17.23-13.79,22.76-23.33l179.36,373.18,3.21,6.69,38.4,79.89,1.61,3.35,1.61,3.34,31.02,64.55Z"/>
  <path class="cls-3" d="M385.23,122.89c-.49-.13-.98-.28-1.47-.44-.05-.01-.09-.03-.13-.04-.46-.15-.93-.31-1.39-.47.99.34,1.98.66,2.99.95Z"/>
  <path d="M382.24,121.94c.46.16.93.32,1.39.47.04.01.08.03.13.04.49.16.98.31,1.47.44-1.01-.29-2-.61-2.99-.95Z"/>
  <path d="M735.44,375.3l-91.83,91.83L462.93,91.21c3.19-7.74,4.95-16.21,4.95-25.09,0-36.46-29.66-66.12-66.12-66.12s-66.13,29.66-66.13,66.12c0,10.85,2.63,21.09,7.28,30.14l-179.16,372.78-94.74-94.74L0,444.36l100.74,100.74s.04.05.06.07c.02.02.04.04.07.06l17.73,17.74-41.86,87.1,6.03,3.51c.2-.29,19.89-28.49,39.73-32.09l1.74-.32,17.24-35.32,26.84,26.84s.03.03.05.05l32.25,32.24,66.51,66.52.03.03s.02.02.03.03l33.21,33.21s.02.02.03.03l.02.02,33.26,33.25,66.05,66.06,2.47,2.47,168.35-168.35,94.97-94.96,18.49,37.88,1.74.32c19.84,3.6,39.53,31.8,39.73,32.09l6.03-3.51-43.1-89.67,15.2-15.2.03-.03s.01-.01.02-.02l65.68-65.69s.03-.02.04-.03l.93-.93s.02-.03.03-.04l31.65-31.64,2.47-2.48-69.05-69.04ZM342.69,66.1c0-32.66,26.47-59.13,59.12-59.13s59.13,26.47,59.13,59.13-26.47,59.12-59.13,59.12-59.12-26.47-59.12-59.12ZM385.23,122.89c-.49-.13-.98-.28-1.47-.44-.05-.01-.09-.03-.13-.04-.46-.15-.93-.31-1.39-.47.99.34,1.98.66,2.99.95ZM108.23,542.7l17.09-17.1c1.37-1.37,1.37-3.59,0-4.95-1.36-1.37-3.58-1.37-4.95,0l-17.09,17.1-27.84-27.84,28.84-28.84c1.37-1.37,1.37-3.58,0-4.95-1.36-1.37-3.58-1.37-4.95,0l-28.84,28.84-28.17-28.17,17.35-17.35c1.36-1.37,1.36-3.58,0-4.95-1.37-1.37-3.59-1.37-4.95,0l-17.35,17.35-27.51-27.51,59.18-60.09,91.49,91.49-38.72,80.55-13.58-13.58ZM139.49,573.96l-3.24,6.65-16.78,34.36c-9.31,2.24-18.19,8.57-25.41,15.22l29.79-61.98,3.21-6.68,38.72-80.55,3.21-6.69L347.22,103.47c8.1,11.81,19.95,20.86,33.81,25.45,4.39,1.46,8.98,2.46,13.72,2.96,1.39.15,2.8.25,4.22.31.92.04,1.86.06,2.79.06.43,0,.86,0,1.28-.02.76-.01,1.5-.03,2.25-.08l-1.15,1.99-4.04,7-2.02,3.5-.75,1.3-74.69,129.36c-.28,0-.55-.01-.83-.01-38.99,0-69.11,66.46-70.76,70.17l-69.18,141.7-3.25,6.66-5.21,10.67-33.92,69.47ZM481.78,282.61l2.23-.21c35.78-3.24,66.54,65.26,66.84,65.95l69.39,142.15-217.52,217.52-215.61-215.62,70.26-143.93.06-.12c.3-.69,31.1-69.2,66.84-65.95l2.23.21,77.64-134.48,77.64,134.48ZM634.16,604.77l-17.59-17.58c-1.36-1.37-3.58-1.37-4.95,0-1.36,1.37-1.36,3.58,0,4.95l17.59,17.58-28.57,28.57-30.06-30.06c-1.37-1.37-3.58-1.37-4.95,0-1.37,1.37-1.37,3.58,0,4.95l30.06,30.06-27.59,27.59-17.09-17.1c-1.37-1.36-3.59-1.36-4.95,0s-1.37,3.59,0,4.95l17.1,17.1-28.08,28.08-29.09-29.09c-1.36-1.36-3.58-1.36-4.95,0-1.36,1.37-1.36,3.59,0,4.95l29.09,29.09-29.06,29.06-17.2-17.2c-1.36-1.37-3.58-1.37-4.95,0-1.36,1.36-1.36,3.58,0,4.95l17.2,17.19-28.57,28.57-29.08-29.08c-1.37-1.37-3.58-1.37-4.95,0-1.37,1.36-1.37,3.58,0,4.95l29.08,29.08-28.42,28.42-17.15-17.15c-1.36-1.37-3.58-1.37-4.95,0-1.36,1.36-1.36,3.58,0,4.95l17.15,17.15-27,27-27.53-27.53,17.3-17.31c1.37-1.36,1.37-3.58,0-4.95-1.37-1.36-3.58-1.36-4.95,0l-17.3,17.31-28.62-28.62,28.35-28.35c1.37-1.37,1.37-3.59,0-4.95-1.37-1.37-3.58-1.37-4.95,0l-28.35,28.35-28.32-28.32,17.09-17.1c1.37-1.37,1.37-3.59,0-4.95-1.36-1.37-3.58-1.37-4.94,0l-17.1,17.1-28.32-28.32,28.35-28.36c1.36-1.36,1.36-3.58,0-4.95-1.37-1.36-3.59-1.36-4.95,0l-28.35,28.36-28.82-28.82,17.2-17.2c1.37-1.36,1.37-3.58,0-4.95-1.36-1.36-3.58-1.36-4.95,0l-17.2,17.2-27.83-27.83,28.35-28.35c1.37-1.37,1.37-3.58,0-4.95-1.36-1.37-3.58-1.37-4.95,0l-28.35,28.35-27.34-27.34,17.1-17.1c1.36-1.37,1.36-3.58,0-4.95-1.37-1.37-3.59-1.37-4.95,0l-17.1,17.1-26.07-26.07,33.84-69.31,5.29-10.84,216.39,216.39,2.47,2.48,220.77-220.77,10.04,20.56,28.77,58.92-28.14,28.14ZM714.22,630.19c-7.22-6.65-16.11-12.98-25.42-15.22l-18.02-36.91-1.62-3.33-1.63-3.33-28.68-58.75-10.12-20.74-3.25-6.65-68.25-139.8c-1.65-3.7-31.76-70.17-70.76-70.17-.28,0-.55.01-.83.01l-77.46-134.17,5.78-10.02c8.03-1.5,15.56-4.46,22.29-8.59,9.39-5.76,17.23-13.79,22.76-23.33l179.36,373.18,3.21,6.69,38.4,79.89,1.61,3.35,1.61,3.34,31.02,64.55ZM767.4,471.54l-17.05-17.05c-1.37-1.37-3.59-1.37-4.95,0-1.37,1.37-1.37,3.58,0,4.95l17.05,17.05-28.23,28.22-28.59-28.59c-1.37-1.37-3.59-1.37-4.95,0-1.37,1.37-1.37,3.58,0,4.95l28.59,28.59-28.08,28.08-17.09-17.09c-1.37-1.37-3.59-1.37-4.95,0-1.37,1.36-1.37,3.58,0,4.95l17.09,17.09-11.02,11.02-38.4-79.89,88.62-88.62,59.15,59.14-27.19,27.2ZM401.81,110.73c24.8,0,44.9-20.1,44.9-44.9s-20.1-44.89-44.9-44.89-44.89,20.1-44.89,44.89,20.1,44.9,44.89,44.9ZM377.8,37.13c6.52-5.41,14.89-8.65,24.01-8.65,20.82,0,37.69,16.87,37.69,37.69,0,9.13-3.24,17.49-8.65,24.01-1.48,1.8-3.14,3.47-4.95,4.95-6.53,5.45-14.92,8.72-24.09,8.72-20.81,0-37.69-16.87-37.69-37.68,0-9.17,3.27-17.57,8.72-24.1,1.49-1.8,3.15-3.46,4.96-4.94Z"/>
  <path class="cls-4" d="M405.29,132.15l-1.15,1.99-4.04,7-2.02,3.5-.75,1.3-74.69,129.36c-.28,0-.55-.01-.83-.01-38.99,0-69.11,66.46-70.76,70.17l-69.18,141.7-3.25,6.66-5.21,10.67-33.92,69.47-3.24,6.65-16.78,34.36c-9.31,2.24-18.19,8.57-25.41,15.22l29.79-61.98,3.21-6.68,38.72-80.55,3.21-6.69L347.22,103.47c8.1,11.81,19.95,20.86,33.81,25.45,4.39,1.46,8.98,2.46,13.72,2.96,1.39.15,2.8.25,4.22.31.92.04,1.86.06,2.79.06.43,0,.86,0,1.28-.02.76-.01,1.5-.03,2.25-.08Z"/>
  <path class="cls-4" d="M401.81,20.94c-24.79,0-44.89,20.1-44.89,44.89s20.1,44.9,44.89,44.9,44.9-20.1,44.9-44.9-20.1-44.89-44.9-44.89ZM425.9,95.13c-6.53,5.45-14.92,8.72-24.09,8.72-20.81,0-37.69-16.87-37.69-37.68,0-9.17,3.27-17.57,8.72-24.1,1.49-1.8,3.15-3.46,4.96-4.94,6.52-5.41,14.89-8.65,24.01-8.65,20.82,0,37.69,16.87,37.69,37.69,0,9.13-3.24,17.49-8.65,24.01-1.48,1.8-3.14,3.47-4.95,4.95Z"/>
  <path class="cls-4" d="M401.81,6.97c-32.65,0-59.12,26.47-59.12,59.13s26.47,59.12,59.12,59.12,59.13-26.47,59.13-59.12-26.47-59.13-59.13-59.13ZM401.81,110.73c-24.79,0-44.89-20.1-44.89-44.9s20.1-44.89,44.89-44.89,44.9,20.1,44.9,44.89-20.1,44.9-44.9,44.9Z"/>
  <g>
    <path class="cls-4" d="M425.97,95.2c-6.55,5.46-14.98,8.74-24.16,8.74-20.87,0-37.85-16.97-37.85-37.84,0-9.18,3.29-17.61,8.75-24.16l.13.13c-5.45,6.53-8.72,14.93-8.72,24.1,0,20.81,16.88,37.68,37.69,37.68,9.17,0,17.56-3.27,24.09-8.72l.07.07Z"/>
    <path class="cls-4" d="M439.66,66.1c0,9.18-3.28,17.6-8.74,24.15l-.07-.07c5.41-6.52,8.65-14.88,8.65-24.01,0-20.82-16.87-37.69-37.69-37.69-9.12,0-17.49,3.24-24.01,8.65l-.14-.14c6.55-5.46,14.97-8.74,24.15-8.74,20.87,0,37.85,16.98,37.85,37.85Z"/>
  </g>
  <path d="M401.81,20.94c-24.79,0-44.89,20.1-44.89,44.89s20.1,44.9,44.89,44.9,44.9-20.1,44.9-44.9-20.1-44.89-44.9-44.89ZM425.9,95.13c-6.53,5.45-14.92,8.72-24.09,8.72-20.81,0-37.69-16.87-37.69-37.68,0-9.17,3.27-17.57,8.72-24.1,1.49-1.8,3.15-3.46,4.96-4.94,6.52-5.41,14.89-8.65,24.01-8.65,20.82,0,37.69,16.87,37.69,37.69,0,9.13-3.24,17.49-8.65,24.01-1.48,1.8-3.14,3.47-4.95,4.95Z"/>
  <path class="cls-4" d="M439.5,66.17c0,9.13-3.24,17.49-8.65,24.01-1.48,1.8-3.14,3.47-4.95,4.95-6.53,5.45-14.92,8.72-24.09,8.72-20.81,0-37.69-16.87-37.69-37.68,0-9.17,3.27-17.57,8.72-24.1,1.49-1.8,3.15-3.46,4.96-4.94,6.52-5.41,14.89-8.65,24.01-8.65,20.82,0,37.69,16.87,37.69,37.69Z"/>
</svg>